<svg width="24" height="24" viewBox="0 0 24 24" fill="none" xmlns="http://www.w3.org/2000/svg">
<circle cx="12" cy="12" r="12" fill="#488E9D"/>
<path d="M6.17972 10.0006L7.85537 11.6762C7.95922 11.7809 8.08277 11.864 8.2189 11.9207C8.35503 11.9775 8.50104 12.0067 8.64851 12.0067C8.79598 12.0067 8.94199 11.9775 9.07812 11.9207C9.21425 11.864 9.3378 11.7809 9.44165 11.6762C9.61118 11.4983 9.71729 11.2694 9.74355 11.025C9.7698 10.7806 9.71473 10.5344 9.58687 10.3245H13.6755C13.9717 10.3245 14.2559 10.2068 14.4654 9.99734C14.6749 9.78784 14.7926 9.50371 14.7926 9.20743C14.7926 8.91116 14.6749 8.62702 14.4654 8.41752C14.2559 8.20803 13.9717 8.09033 13.6755 8.09033H9.58687C9.71473 7.88043 9.7698 7.63422 9.74355 7.38985C9.71729 7.14548 9.61118 6.91659 9.44165 6.73864C9.3378 6.63394 9.21425 6.55083 9.07812 6.49412C8.94199 6.4374 8.79598 6.4082 8.64851 6.4082C8.50104 6.4082 8.35503 6.4374 8.2189 6.49412C8.08277 6.55083 7.95922 6.63394 7.85537 6.73864L6.17972 8.41429C6.07802 8.52053 5.99829 8.64581 5.94513 8.78293C5.8334 9.0549 5.8334 9.35996 5.94513 9.63193C5.99829 9.76906 6.07802 9.89433 6.17972 10.0006ZM18.0545 14.3684C18.0013 14.2313 17.9216 14.106 17.8199 13.9998L16.1443 12.3241C16.0404 12.2194 15.9169 12.1363 15.7807 12.0796C15.6446 12.0229 15.4986 11.9937 15.3511 11.9937C15.2036 11.9937 15.0576 12.0229 14.9215 12.0796C14.7854 12.1363 14.6618 12.2194 14.558 12.3241C14.3884 12.5021 14.2823 12.731 14.2561 12.9754C14.2298 13.2197 14.2849 13.4659 14.4127 13.6758H10.3242C10.0279 13.6758 9.74375 13.7935 9.53425 14.003C9.32475 14.2125 9.20706 14.4967 9.20706 14.7929C9.20706 15.0892 9.32475 15.3733 9.53425 15.5828C9.74375 15.7923 10.0279 15.91 10.3242 15.91H14.4127C14.2849 16.1199 14.2298 16.3661 14.2561 16.6105C14.2823 16.8549 14.3884 17.0838 14.558 17.2617C14.6618 17.3664 14.7854 17.4495 14.9215 17.5062C15.0576 17.563 15.2036 17.5922 15.3511 17.5922C15.4986 17.5922 15.6446 17.563 15.7807 17.5062C15.9169 17.4495 16.0404 17.3664 16.1443 17.2617L17.8199 15.5861C17.9216 15.4798 18.0013 15.3546 18.0545 15.2174C18.1662 14.9455 18.1662 14.6404 18.0545 14.3684Z" fill="white"/>
</svg>
