<svg width="25" height="25" viewBox="0 0 25 25" fill="none" xmlns="http://www.w3.org/2000/svg">
<circle cx="12.5" cy="12.1433" r="12" fill="#03A083"/>
<path fill-rule="evenodd" clip-rule="evenodd" d="M18.4991 7.77034C18.8896 7.37981 18.8896 6.74665 18.4991 6.35613C18.1086 5.9656 17.4754 5.9656 17.0849 6.35613L12.4999 10.9411L7.91504 6.3562C7.52452 5.96568 6.89136 5.96568 6.50083 6.3562C6.11031 6.74673 6.11031 7.37989 6.50083 7.77042L11.0408 12.3104L6.50083 16.8503C6.11031 17.2409 6.11031 17.874 6.50083 18.2645C6.89136 18.6551 7.52452 18.6551 7.91504 18.2645L12.5 13.6796L17.0849 18.2645C17.4754 18.655 18.1086 18.655 18.4991 18.2645C18.8896 17.8739 18.8896 17.2408 18.4991 16.8503L13.9591 12.3103L18.4991 7.77034Z" fill="white"/>
</svg>
